<svg width="71" height="16" viewBox="0 0 71 16" fill="none" xmlns="http://www.w3.org/2000/svg">
<mask id="mask0_4_10" style="mask-type:luminance" maskUnits="userSpaceOnUse" x="1" y="0" width="69" height="16">
<path d="M70 0.5H1V15.5H70V0.5Z" fill="white"/>
</mask>
<g mask="url(#mask0_4_10)">
<path d="M5.49273 15.2877C4.45763 14.1929 3.43305 13.0875 2.40648 11.9839C2.25862 11.8249 2.23542 11.6357 2.33025 11.4374C2.4219 11.2456 2.58074 11.1767 2.77924 11.1891L5.34431 11.4926C6.01913 11.5734 6.6939 11.6544 7.36782 11.7417C7.69423 11.7839 8.01745 11.8457 8.3475 11.8661C8.57603 11.8803 8.72564 12.0464 8.80077 12.2621C8.84794 12.3808 8.85951 12.5114 8.83397 12.637C8.80843 12.7626 8.74697 12.8772 8.65764 12.9659C8.07058 13.594 7.48381 14.2224 6.89734 14.8511C6.7585 14.9998 6.6265 15.1563 6.47829 15.2942C6.34121 15.4246 6.16261 15.4979 5.97673 15.5C5.88646 15.5002 5.79708 15.4815 5.71392 15.4451C5.63076 15.4086 5.55553 15.3551 5.49273 15.2877ZM8.9207 14.4097C8.87046 14.4113 8.82081 14.3981 8.77743 14.3718C8.73405 14.3454 8.69869 14.3068 8.6754 14.2606C8.64545 14.2124 8.63122 14.1555 8.63481 14.0982C8.63841 14.041 8.65964 13.9865 8.69536 13.9428C9.10942 13.4324 9.52348 12.9217 9.94642 12.4189C10.0587 12.2856 10.2241 12.2466 10.3944 12.2604C10.9358 12.3039 11.4769 12.35 12.0184 12.3943C12.1438 12.4047 12.2568 12.4382 12.2838 12.5861C12.3108 12.7329 12.222 12.8094 12.1059 12.865C11.4555 13.176 10.7978 13.4722 10.1585 13.8063C9.83083 13.9776 9.50427 14.1524 9.17482 14.3208C9.0965 14.3609 9.02087 14.41 8.92933 14.41C8.92643 14.4098 8.92359 14.4098 8.9207 14.4097ZM11.1248 11.4812C10.8216 11.4812 10.7537 11.3786 10.8877 11.1102C11.7992 9.28509 12.7112 7.46013 13.6237 5.63536C13.7439 5.39418 13.9138 5.23676 14.1716 5.17487C14.4092 5.11786 14.6424 5.04073 14.88 4.98309C15.0624 4.93888 15.241 4.94209 15.3816 5.10381C15.5282 5.27258 15.4985 5.45762 15.4558 5.65982C15.3247 6.27918 15.2087 6.90206 15.0879 7.52375C14.8679 8.65584 14.655 9.78948 14.4257 10.9195C14.353 11.2778 14.0959 11.4669 13.7344 11.4711C13.2904 11.4763 12.8464 11.4724 12.4024 11.4724V11.4812H11.1248ZM5.4596 10.9057C4.46306 10.7781 3.46448 10.6658 2.47064 10.5187C1.67863 10.4016 1.30259 9.57712 1.70477 8.86037C2.4425 7.54572 3.20352 6.24502 3.93337 4.92561C4.22371 4.40069 5.09508 4.14215 5.55638 4.89249C6.52523 6.46868 7.45028 8.07271 8.38202 9.67234C8.77353 10.3445 8.3237 11.1596 7.47847 11.1651C6.87285 11.0873 6.1663 10.9962 5.4596 10.9057ZM9.513 9.80311C8.92359 8.88178 8.37349 7.93349 7.80722 6.99629C7.1144 5.84917 6.42985 4.69656 5.72565 3.55705C5.40413 3.03691 5.31473 2.50655 5.51428 1.92073C5.61086 1.63736 5.6797 1.34398 5.77284 1.05921C5.94844 0.52253 6.51191 0.330073 6.96149 0.668233C7.3788 0.982083 7.77864 1.32714 8.20033 1.62824C9.0277 2.21914 9.8238 2.85249 10.6413 3.45593C11.273 3.92206 11.8923 4.40645 12.5202 4.87828C12.6253 4.95339 12.7115 5.05373 12.7715 5.17081C12.8314 5.28788 12.8633 5.41823 12.8644 5.55082C12.8523 5.69984 12.8109 5.8447 12.7428 5.97647C12.1067 7.22135 11.4779 8.47048 10.8384 9.71365C10.6796 10.0226 10.4132 10.1836 10.1461 10.1837C9.91215 10.1835 9.67713 10.0597 9.513 9.80311ZM1.0306 7.34544C0.978323 7.22534 1.00312 7.07871 1.0306 6.94995C1.10234 6.61454 1.13382 6.29592 1.18934 5.96953C1.24128 5.66454 1.26417 5.35416 1.29909 5.04617C1.31179 4.88539 1.36795 4.7316 1.4611 4.60253C1.55425 4.47347 1.68061 4.37437 1.8256 4.31667C2.17521 4.16319 2.5314 4.02594 2.88495 3.88215C3.07222 3.80596 3.24104 3.82514 3.37439 3.99536C3.50299 4.15972 3.46573 4.32341 3.37059 4.48938C2.8534 5.39128 2.33707 6.29369 1.82161 7.19663C1.66796 7.4646 1.49545 7.63 1.33771 7.63006C1.22327 7.63006 1.11666 7.54318 1.0306 7.34544ZM12.994 4.47647C11.8552 3.56459 10.7178 2.65096 9.5817 1.73558C9.48631 1.65877 9.33186 1.5876 9.43388 1.42806C9.53465 1.27064 9.66172 1.39043 9.76772 1.44604C10.9933 2.08877 12.2181 2.73323 13.442 3.37942C13.7927 3.56431 14.1443 3.74801 14.4918 3.93984C14.7326 4.07305 14.75 4.22156 14.5287 4.37685C14.2871 4.54619 14.0897 4.8109 13.7568 4.80608C13.46 4.80048 13.2181 4.65597 12.994 4.47647ZM2.84199 3.26357C2.71049 3.10491 2.71728 2.93127 2.82812 2.77251C3.12994 2.34006 3.43355 1.90865 3.75228 1.49C3.89331 1.30469 4.14015 1.29303 4.27609 1.4589C4.48985 1.72003 4.58678 2.04461 4.67339 2.33954C4.6761 2.4203 4.65577 2.50009 4.61493 2.56886C4.5741 2.63763 4.51459 2.69231 4.44391 2.72601C4.05978 2.93215 3.67405 3.13606 3.28564 3.33355C3.22386 3.36722 3.15552 3.38583 3.08579 3.38797C3.03873 3.38761 2.99235 3.3762 2.95012 3.35462C2.90789 3.33304 2.871 3.30207 2.84199 3.26357Z" fill="white" fill-opacity="0.5"/>
<mask id="mask1_4_10" style="mask-type:luminance" maskUnits="userSpaceOnUse" x="18" y="3" width="53" height="10">
<path d="M70.0002 3.7887H18.8931V12.2574H70.0002V3.7887Z" fill="white"/>
</mask>
<g mask="url(#mask1_4_10)">
<path d="M18.8931 4.21973H22.2212C22.9994 4.21973 23.6195 4.41623 24.0815 4.80923C24.5432 5.20236 24.7741 5.70117 24.7743 6.30565C24.7743 7.20534 24.2687 7.81376 23.2574 8.13091C23.774 8.20669 24.185 8.42969 24.4904 8.79992C24.7926 9.16092 24.9559 9.62524 24.9487 10.1037C24.9487 10.7385 24.725 11.243 24.2775 11.6172C23.83 11.9914 23.2063 12.1784 22.4065 12.1782H18.8931V4.21973ZM20.7588 5.69386V7.41675H21.9811C22.2502 7.41675 22.4667 7.34494 22.6304 7.20133C22.7941 7.05772 22.8759 6.84422 22.8759 6.56083C22.8759 6.27747 22.7941 6.06205 22.6304 5.91457C22.4667 5.76709 22.2502 5.69352 21.9811 5.69386H20.7588ZM20.7588 10.7047H22.1664C22.399 10.7129 22.6257 10.6275 22.7992 10.4663C22.9664 10.3076 23.05 10.0884 23.0501 9.8088C23.0502 9.52918 22.9702 9.30629 22.81 9.14015C22.7282 9.05676 22.6308 8.99162 22.5238 8.94873C22.4169 8.90584 22.3026 8.88611 22.188 8.89073H20.7588V10.7047Z" fill="white" fill-opacity="0.5"/>
<path d="M28.1135 3.78882H26.2476V12.1781H28.1135V3.78882Z" fill="white" fill-opacity="0.5"/>
<path d="M30.2351 11.3619C29.6203 10.7649 29.3129 9.9789 29.313 9.00378C29.3131 8.02866 29.6186 7.24829 30.2296 6.66268C30.8405 6.07704 31.597 5.78416 32.4991 5.78406C33.4012 5.78395 34.1559 6.07683 34.7631 6.66268C35.3703 7.2485 35.674 8.02887 35.6742 9.00378C35.6744 9.9787 35.3725 10.7647 34.7685 11.3619C34.1646 11.959 33.4118 12.2575 32.5099 12.2575C31.6081 12.2575 30.8498 11.959 30.2351 11.3619ZM33.4047 10.1941C33.6519 9.92201 33.7756 9.52899 33.7758 9.01508C33.776 8.50117 33.6486 8.11007 33.3938 7.84178C33.2777 7.71345 33.1373 7.61144 32.9814 7.54217C32.8256 7.47289 32.6576 7.43785 32.4881 7.43925C32.3193 7.43752 32.1521 7.47243 31.9971 7.54175C31.8421 7.61107 31.7028 7.71326 31.588 7.84178C31.337 8.11021 31.2114 8.50131 31.2114 9.01508C31.2114 9.52885 31.3406 9.92187 31.5989 10.1941C31.7154 10.3237 31.8565 10.4269 32.0133 10.4971C32.1701 10.5674 32.3392 10.6031 32.5099 10.6022C32.6784 10.6041 32.8453 10.5687 32.9996 10.4983C33.1539 10.428 33.292 10.3243 33.4047 10.1941Z" fill="white" fill-opacity="0.5"/>
<path d="M37.2729 11.3731C36.7091 10.7836 36.4272 9.99758 36.4272 9.01503C36.4273 8.03248 36.7092 7.24836 37.2729 6.66268C37.8365 6.07704 38.5657 5.78416 39.4605 5.78406C40.2024 5.78406 40.8317 5.97489 41.3482 6.35656C41.8648 6.73822 42.2066 7.2842 42.3738 7.99449H40.3552C40.1807 7.61669 39.8952 7.42776 39.4987 7.42769C39.1021 7.42762 38.8075 7.57308 38.615 7.86407C38.4221 8.1552 38.3256 8.53877 38.3256 9.01477C38.3256 9.49077 38.4221 9.87434 38.615 10.1655C38.8076 10.4564 39.0894 10.6019 39.4605 10.6019C39.6933 10.6019 39.8752 10.5603 40.0061 10.4771C40.1371 10.394 40.2535 10.2466 40.3553 10.0351H42.374C42.2065 10.7153 41.8609 11.2557 41.3374 11.6562C40.8138 12.0567 40.1882 12.257 39.4606 12.257C38.566 12.257 37.8367 11.9626 37.2729 11.3731Z" fill="white" fill-opacity="0.5"/>
<path d="M45.2872 12.1781H43.4214V3.78882H45.2872V8.49356L47.1748 5.85225H49.6843L47.0766 9.08306L49.6844 12.1781H47.2075L45.2872 9.65001V12.1781Z" fill="white" fill-opacity="0.5"/>
<path d="M53.1428 5.63689C52.91 5.63689 52.719 5.70118 52.5699 5.82976C52.4208 5.95834 52.3463 6.14346 52.3464 6.3851C52.3464 6.62699 52.4154 6.82164 52.5535 6.96906C52.7053 7.12508 52.8904 7.24163 53.0937 7.30919C53.3155 7.38846 53.5628 7.46401 53.8357 7.53585C54.1107 7.60839 54.3819 7.69539 54.6484 7.79652C54.9073 7.89324 55.1546 8.02071 55.3853 8.17641C55.6156 8.3377 55.8017 8.55841 55.9253 8.81691C56.0634 9.09291 56.1326 9.4236 56.1326 9.809C56.1326 10.4817 55.8689 11.0579 55.3416 11.5377C54.8142 12.0175 54.1196 12.2575 53.2576 12.2577C52.3956 12.2577 51.7009 12.0422 51.1736 11.6114C50.6462 11.1806 50.3825 10.5684 50.3825 9.77484H52.3683C52.4191 10.4098 52.7319 10.7272 53.3067 10.7272C53.5758 10.7272 53.7867 10.6535 53.9396 10.5061C54.0143 10.4351 54.0734 10.3483 54.113 10.2515C54.1525 10.1546 54.1716 10.0501 54.1687 9.94496C54.1724 9.84257 54.1559 9.74048 54.1202 9.64495C54.0846 9.54942 54.0305 9.46247 53.9614 9.38941C53.8077 9.23602 53.6232 9.11987 53.4212 9.04928C53.1993 8.96614 52.952 8.88867 52.6793 8.81686C52.4037 8.74424 52.1323 8.65529 51.8665 8.55044C51.6089 8.4508 51.362 8.3236 51.1297 8.17086C50.8985 8.01289 50.7121 7.79368 50.5897 7.53585C50.4513 7.26003 50.3822 6.93315 50.3823 6.55522C50.3823 5.81459 50.6479 5.22126 51.1789 4.77522C51.71 4.32917 52.3883 4.10629 53.2137 4.10657C54.0393 4.10657 54.7067 4.30117 55.2159 4.69037C55.725 5.07956 55.9906 5.69365 56.0124 6.53262H53.9829C53.9537 6.24553 53.8647 6.02438 53.7157 5.86916C53.6404 5.79191 53.5508 5.73145 53.4523 5.69148C53.3538 5.65152 53.2485 5.63304 53.1428 5.63689Z" fill="white" fill-opacity="0.5"/>
<path d="M60.1915 12.2574C59.3041 12.2574 58.5766 11.9608 58.0092 11.3675C57.4418 10.7742 57.1581 9.98635 57.1582 9.0039C57.1582 8.02142 57.4401 7.23916 58.0038 6.6571C58.5676 6.07505 59.2968 5.78408 60.1914 5.78418C61.0861 5.78418 61.828 6.07139 62.4174 6.6458C63.0067 7.22022 63.3013 8.01757 63.3011 9.03785C63.3021 9.24274 63.2875 9.4474 63.2575 9.6499H59.0677C59.1022 9.90821 59.2235 10.1455 59.4102 10.3198C59.5969 10.4941 59.8369 10.5941 60.0878 10.6022C60.3241 10.6022 60.5005 10.5777 60.617 10.5285C60.7093 10.4937 60.7958 10.444 60.8734 10.3813C60.9508 10.3064 61.022 10.2249 61.0862 10.1376H63.1048C62.9383 10.7607 62.5678 11.304 62.0572 11.6738C61.5334 12.0632 60.9116 12.2576 60.1915 12.2574ZM60.988 7.7173C60.7697 7.53209 60.4951 7.43361 60.2133 7.43947C59.9378 7.43103 59.6692 7.53015 59.4605 7.7173C59.2562 7.90351 59.121 8.15815 59.0785 8.43706H61.3589C61.3475 8.29716 61.3088 8.16116 61.245 8.03739C61.1812 7.91363 61.0938 7.8047 60.988 7.7173Z" fill="white" fill-opacity="0.5"/>
<path d="M64.8993 11.3731C64.3355 10.7836 64.0536 9.99758 64.0537 9.01503C64.0538 8.03248 64.3357 7.24836 64.8993 6.66268C65.463 6.07704 66.1922 5.78416 67.0869 5.78406C67.8289 5.78406 68.4582 5.97489 68.9747 6.35656C69.4912 6.73822 69.8331 7.2842 70.0003 7.99449H67.9816C67.8072 7.61669 67.5217 7.42776 67.1251 7.42769C66.7286 7.42762 66.434 7.57308 66.2414 7.86407C66.0486 8.1552 65.9521 8.53877 65.9521 9.01477C65.9521 9.49077 66.0486 9.87434 66.2414 10.1655C66.434 10.4564 66.7159 10.6019 67.0869 10.6019C67.3197 10.6019 67.5016 10.5603 67.6326 10.4771C67.7636 10.394 67.88 10.2466 67.9818 10.0351H70.0004C69.8329 10.7153 69.4874 11.2557 68.9638 11.6562C68.4402 12.0567 67.8147 12.257 67.0871 12.257C66.1924 12.257 65.463 11.9626 64.8993 11.3731Z" fill="white" fill-opacity="0.5"/>
</g>
</g>
</svg>
