<svg fill="none" height="15" viewBox="0 0 69 15" width="69" xmlns="http://www.w3.org/2000/svg" xmlns:xlink="http://www.w3.org/1999/xlink"><mask id="a" height="9" maskUnits="userSpaceOnUse" width="52" x="17" y="3"><path d="m69.0002 3.2887h-51.1071v8.4687h51.1071z" fill="#fff"/></mask><g fill="#222c3c"><path d="m4.49273 14.7877c-1.0351-1.0948-2.05968-2.2002-3.08625-3.3038-.14786-.159-.17106-.3482-.07623-.5465.09165-.1918.25049-.2607.44899-.2483l2.56507.3035c.67482.0808 1.34959.1618 2.02351.2491.32641.0422.64963.104.97968.1244.22853.0142.37814.1803.45327.396.04717.1187.05874.2493.0332.3749s-.087.2402-.17633.3289c-.58706.6281-1.17383 1.2565-1.7603 1.8852-.13884.1487-.27084.3052-.41905.4431-.13708.1304-.31568.2037-.50156.2058-.09027.0002-.17965-.0185-.26281-.0549-.08316-.0365-.15839-.09-.22119-.1574zm3.42797-.878c-.05024.0016-.09989-.0116-.14327-.0379-.04338-.0264-.07874-.065-.10203-.1112-.02995-.0482-.04418-.1051-.04059-.1624.0036-.0572.02483-.1117.06055-.1554.41406-.5104.82812-1.0211 1.25106-1.5239.11225-.1333.27772-.1723.44798-.1585.54142.0435 1.0825.0896 1.624.1339.1254.0104.2384.0439.2654.1918.027.1468-.0618.2233-.1779.2789-.6504.311-1.30811.6072-1.94736.9413-.32771.1713-.65427.3461-.98372.5145-.07832.0401-.15395.0892-.24549.0892-.0029-.0002-.00574-.0002-.00863-.0003zm2.2041-2.9285c-.30317 0-.37111-.1026-.23712-.371.91152-1.82511 1.82352-3.65007 2.73602-5.47484.1202-.24118.2901-.3986.5479-.46049.2376-.05701.4708-.13414.7084-.19178.1824-.04421.361-.041.5016.12072.1466.16877.1169.35381.0742.55601-.1311.61936-.2471 1.24224-.3679 1.86393-.22 1.13209-.4329 2.26573-.6622 3.39575-.0727.3583-.3298.5474-.6913.5516-.444.0052-.888.0013-1.332.0013v.0088zm-5.6652-.5755c-.99654-.1276-1.99512-.2399-2.98896-.387-.792006-.11712-1.168053-.94158-.765866-1.65833.737726-1.31465 1.498746-2.61535 2.228596-3.93476.29034-.52492 1.16171-.78346 1.62301-.03312.96885 1.57619 1.8939 3.18022 2.82564 4.77985.39151.67212-.05832 1.48726-.90355 1.49276-.60562-.0778-1.31217-.1689-2.01887-.2594zm4.0534-1.10259c-.58941-.92133-1.13951-1.86962-1.70578-2.80682-.69282-1.14712-1.37737-2.29973-2.08157-3.43924-.32152-.52014-.41092-1.0505-.21137-1.63632.09658-.28337.16542-.576747.25856-.861519.1756-.536681.73907-.729138 1.18865-.390978.41731.31385.81715.658904 1.23884.960007.82737.5909 1.62347 1.22425 2.44101 1.82769.63166.46613 1.25096.95052 1.87886 1.42235.1051.07511.1913.17545.2513.29253.0599.11707.0918.24742.0929.38001-.0121.14902-.0535.29388-.1216.42565-.6361 1.24488-1.2649 2.49401-1.9044 3.73718-.15884.30892-.42519.46997-.69233.47007-.23392-.0002-.46894-.12398-.63307-.38061zm-8.4823957-2.45767c-.0522814-.1201-.02748766-.26673 0-.39549.0717367-.33541.1032157-.65403.1587397-.98042.051932-.30499.07483-.61537.109751-.92336.012694-.16078.068852-.31457.162004-.44364.093152-.12906.219506-.22816.364501-.28586.34961-.15348.7058-.29073 1.05935-.43452.18727-.07619.35609-.05701.48944.11321.1286.16436.09134.32805-.0038.49402-.51719.9019-1.03352 1.80431-1.548981 2.70725-.153651.26797-.32616.43337-.483902.43343-.11444 0-.221048-.08688-.3071027-.28462zm11.9633957-2.86897c-1.1388-.91188-2.27625-1.82551-3.4123-2.74089-.09539-.07681-.24984-.14798-.14782-.307524.10077-.157417.22784-.03763.33384.017987 1.22559.642727 2.45038 1.287187 3.67428 1.933377.3507.18489.7023.36859 1.0498.56042.2408.13321.2582.28172.0369.43701-.2416.16934-.439.43405-.7719.42923-.2968-.0056-.5387-.15011-.7628-.32961zm-10.15201-1.2129c-.1315-.15866-.12471-.3323-.01387-.49106.30182-.43245.60543-.86386.92416-1.282513.14103-.185304.38787-.196966.52381-.0311.21376.261133.31069.585713.3973.880643.00271.08076-.01762.16055-.05846.22932-.04083.06877-.10034.12345-.17102.15715-.38413.20614-.76986.41005-1.15827.60754-.06178.03367-.13012.05228-.19985.05442-.04706-.00036-.09344-.01177-.13567-.03335s-.07922-.0528-.10823-.0913z"/><g mask="url(#a)"><path d="m17.8931 3.71973h3.3281c.7782 0 1.3983.1965 1.8603.5895.4617.39313.6926.89194.6928 1.49642 0 .89969-.5056 1.50811-1.5169 1.82526.5166.07578.9276.29878 1.233.66901.3022.361.4655.82532.4583 1.30376 0 .63482-.2237 1.13932-.6712 1.51352s-1.0712.5612-1.871.561h-3.5134zm1.8657 1.47413v1.72289h1.2223c.2691 0 .4856-.07181.6493-.21542s.2455-.35711.2455-.6405c0-.28336-.0818-.49878-.2455-.64626s-.3802-.22105-.6493-.22071zm0 5.01084h1.4076c.2326.0082.4593-.0772.6328-.2384.1672-.15871.2508-.37788.2509-.6575s-.0799-.50251-.2401-.66865c-.0818-.08339-.1792-.14853-.2862-.19142-.1069-.04289-.2212-.06262-.3358-.058h-1.4292z"/><path d="m27.1135 3.28882h-1.8659v8.38928h1.8659z"/><path d="m29.2351 10.8619c-.6148-.597-.9222-1.383-.9221-2.35812s.3056-1.75549.9166-2.3411c.6109-.58564 1.3674-.87852 2.2695-.87862.9021-.00011 1.6568.29277 2.264.87862.6072.58582.9109 1.36619.9111 2.3411.0002.97492-.3017 1.76092-.9057 2.35812-.6039.5971-1.3567.8956-2.2586.8956-.9018 0-1.6601-.2985-2.2748-.8956zm3.1696-1.16777c.2472-.27212.3709-.66514.3711-1.17905s-.1272-.90501-.382-1.1733c-.1161-.12833-.2565-.23034-.4124-.29961-.1558-.06928-.3238-.10432-.4933-.10292-.1688-.00173-.336.03318-.491.1025s-.2943.17151-.4091.30003c-.251.26843-.3766.65953-.3766 1.1733s.1292.90679.3875 1.17905c.1165.12962.2576.23278.4144.30301.1568.07026.3259.10596.4966.10506.1685.0019.3354-.0335.4897-.10385.1543-.07037.2924-.17407.4051-.30422z"/><path d="m36.2729 10.8731c-.5638-.5895-.8457-1.37552-.8457-2.35807.0001-.98255.282-1.76667.8457-2.35235.5636-.58564 1.2928-.87852 2.1876-.87862.7419 0 1.3712.19083 1.8877.5725.5166.38166.8584.92764 1.0256 1.63793h-2.0186c-.1745-.3778-.46-.56673-.8565-.5668-.3966-.00007-.6912.14539-.8837.43638-.1929.29113-.2894.6747-.2894 1.1507s.0965.85957.2894 1.1507c.1926.29096.4744.43643.8455.43643.2328 0 .4147-.0416.5456-.12476.131-.08314.2474-.2305.3492-.44208h2.0187c-.1675.68024-.5131 1.22064-1.0366 1.62114-.5236.4005-1.1492.6008-1.8768.6008-.8946 0-1.6238-.2947-2.1876-.8842"/><path d="m44.2872 11.6781h-1.8658v-8.38928h1.8658v4.70474l1.8876-2.64131h2.5095l-2.6077 3.23081 2.6078 3.09504h-2.4769l-1.9203-2.52809z"/><path d="m52.1428 5.13689c-.2328 0-.4238.06429-.5729.19287s-.2236.3137-.2235.55534c0 .24189.069.43654.2071.58396.1518.15602.3369.27257.5402.34013.2218.07927.4691.15482.742.22666.275.07254.5462.15954.8127.26067.2589.09672.5062.22419.7369.37989.2303.16129.4164.382.54.6405.1381.276.2073.60669.2073.99209 0 .67266-.2637 1.2489-.791 1.7287-.5274.4798-1.222.7198-2.084.72-.862 0-1.5567-.2155-2.084-.6463-.5274-.4308-.7911-1.043-.7911-1.83656h1.9858c.0508.63496.3636.95236.9384.95236.2691 0 .48-.0737.6329-.2211.0747-.07099.1338-.15782.1734-.25464.0395-.09683.0586-.20136.0557-.3065.0037-.10239-.0128-.20448-.0485-.30001-.0356-.09553-.0897-.18248-.1588-.25554-.1537-.15339-.3382-.26954-.5402-.34013-.2219-.08314-.4692-.16061-.7419-.23242-.2756-.07262-.547-.16157-.8128-.26642-.2576-.09964-.5045-.22684-.7368-.37958-.2312-.15797-.4176-.37718-.54-.63501-.1384-.27582-.2075-.6027-.2074-.98063 0-.74063.2656-1.33396.7966-1.78.5311-.44605 1.2094-.66893 2.0348-.66865.8256 0 1.493.1946 2.0022.5838.5091.38919.7747 1.00328.7965 1.84225h-2.0295c-.0292-.28709-.1182-.50824-.2672-.66346-.0753-.07725-.1649-.13771-.2634-.17768-.0985-.03996-.2038-.05859-.3095-.05474"/><path d="m59.1915 11.7574c-.8874 0-1.6149-.2966-2.1823-.8899s-.8511-1.38115-.851-2.3636c0-.98248.2819-1.76474.8456-2.3468.5638-.58205 1.293-.87302 2.1876-.87292.8947 0 1.6366.28721 2.226.86162.5893.57442.8839 1.37177.8837 2.39205.001.20489-.0136.40955-.0436.61205h-4.1898c.0345.25831.1558.49561.3425.66991.1867.17429.4267.27429.6776.28239.2363 0 .4127-.0245.5292-.0737.0923-.03482.1788-.08451.2564-.14723.0774-.07486.1486-.15635.2128-.24362h2.0186c-.1665.62305-.537 1.16635-1.0476 1.53615-.5238.3894-1.1457.584-1.8658.5838m.7966-4.5403c-.2183-.18521-.4929-.28369-.7747-.27783-.2755-.00844-.5441.09068-.7528.27783-.2043.18621-.3395.44085-.382.71976h2.2804c-.0114-.1399-.0501-.2759-.1139-.39967-.0638-.12376-.1512-.23269-.257-.32009z"/><path d="m63.8993 10.8731c-.5638-.5895-.8457-1.37552-.8456-2.35807s.282-1.76667.8456-2.35235c.5637-.58564 1.2929-.87852 2.1876-.87862.742 0 1.3713.19083 1.8878.5725.5165.38166.8584.92764 1.0256 1.63793h-2.0187c-.1744-.3778-.4599-.56673-.8565-.5668-.3965-.00007-.6911.14539-.8837.43638-.1928.29113-.2893.6747-.2893 1.1507s.0965.85957.2893 1.1507c.1926.29096.4745.43643.8455.43643.2328 0 .4147-.0416.5457-.12476.131-.08314.2474-.2305.3492-.44208h2.0186c-.1675.68024-.513 1.22064-1.0366 1.62114s-1.1491.6008-1.8767.6008c-.8947 0-1.6239-.2947-2.1876-.8842"/></g></g></svg>