<svg width="69" height="15" viewBox="0 0 69 15" fill="none" xmlns="http://www.w3.org/2000/svg">
<path d="M4.49273 14.7877C3.45763 13.6929 2.43305 12.5875 1.40648 11.4839C1.25862 11.3249 1.23542 11.1357 1.33025 10.9374C1.4219 10.7456 1.58074 10.6767 1.77924 10.6891L4.34431 10.9926C5.01913 11.0734 5.6939 11.1544 6.36782 11.2417C6.69423 11.2839 7.01745 11.3457 7.3475 11.3661C7.57603 11.3803 7.72564 11.5464 7.80077 11.7621C7.84794 11.8808 7.85951 12.0114 7.83397 12.137C7.80843 12.2626 7.74697 12.3772 7.65764 12.4659C7.07058 13.094 6.48381 13.7224 5.89734 14.3511C5.7585 14.4998 5.6265 14.6563 5.47829 14.7942C5.34121 14.9246 5.16261 14.9979 4.97673 15C4.88646 15.0002 4.79708 14.9815 4.71392 14.9451C4.63076 14.9086 4.55553 14.8551 4.49273 14.7877ZM7.9207 13.9097C7.87046 13.9113 7.82081 13.8981 7.77743 13.8718C7.73405 13.8454 7.69869 13.8068 7.6754 13.7606C7.64545 13.7124 7.63122 13.6555 7.63481 13.5982C7.63841 13.541 7.65964 13.4865 7.69536 13.4428C8.10942 12.9324 8.52348 12.4217 8.94642 11.9189C9.05867 11.7856 9.22414 11.7466 9.3944 11.7604C9.93582 11.8039 10.4769 11.85 11.0184 11.8943C11.1438 11.9047 11.2568 11.9382 11.2838 12.0861C11.3108 12.2329 11.222 12.3094 11.1059 12.365C10.4555 12.676 9.79779 12.9722 9.15854 13.3063C8.83083 13.4776 8.50427 13.6524 8.17482 13.8208C8.0965 13.8609 8.02087 13.91 7.92933 13.91C7.92643 13.9098 7.92359 13.9098 7.9207 13.9097ZM10.1248 10.9812C9.82163 10.9812 9.75369 10.8786 9.88768 10.6102C10.7992 8.78509 11.7112 6.96013 12.6237 5.13536C12.7439 4.89418 12.9138 4.73676 13.1716 4.67487C13.4092 4.61786 13.6424 4.54073 13.88 4.48309C14.0624 4.43888 14.241 4.44209 14.3816 4.60381C14.5282 4.77258 14.4985 4.95762 14.4558 5.15982C14.3247 5.77918 14.2087 6.40206 14.0879 7.02375C13.8679 8.15584 13.655 9.28948 13.4257 10.4195C13.353 10.7778 13.0959 10.9669 12.7344 10.9711C12.2904 10.9763 11.8464 10.9724 11.4024 10.9724V10.9812L10.1248 10.9812ZM4.4596 10.4057C3.46306 10.2781 2.46448 10.1658 1.47064 10.0187C0.678634 9.90158 0.302587 9.07712 0.704774 8.36037C1.4425 7.04572 2.20352 5.74502 2.93337 4.42561C3.22371 3.90069 4.09508 3.64215 4.55638 4.39249C5.52523 5.96868 6.45028 7.57271 7.38202 9.17234C7.77353 9.84446 7.3237 10.6596 6.47847 10.6651C5.87285 10.5873 5.1663 10.4962 4.4596 10.4057ZM8.513 9.30311C7.92359 8.38178 7.37349 7.43349 6.80722 6.49629C6.1144 5.34917 5.42985 4.19656 4.72565 3.05705C4.40413 2.53691 4.31473 2.00655 4.51428 1.42073C4.61086 1.13736 4.6797 0.843983 4.77284 0.559211C4.94844 0.02253 5.51191 -0.169927 5.96149 0.168233C6.3788 0.482083 6.77864 0.827137 7.20033 1.12824C8.0277 1.71914 8.8238 2.35249 9.64134 2.95593C10.273 3.42206 10.8923 3.90645 11.5202 4.37828C11.6253 4.45339 11.7115 4.55373 11.7715 4.67081C11.8314 4.78788 11.8633 4.91823 11.8644 5.05082C11.8523 5.19984 11.8109 5.3447 11.7428 5.47647C11.1067 6.72135 10.4779 7.97048 9.8384 9.21365C9.67956 9.52257 9.41321 9.68362 9.14607 9.68372C8.91215 9.68352 8.67713 9.55974 8.513 9.30311ZM0.0306043 6.84544C-0.0216771 6.72534 0.00311664 6.57871 0.0306043 6.44995C0.102341 6.11454 0.13382 5.79592 0.189344 5.46953C0.241276 5.16454 0.264174 4.85416 0.299095 4.54617C0.311789 4.38539 0.367947 4.2316 0.461099 4.10253C0.554251 3.97347 0.680605 3.87437 0.8256 3.81667C1.17521 3.66319 1.5314 3.52594 1.88495 3.38215C2.07222 3.30596 2.24104 3.32514 2.37439 3.49536C2.50299 3.65972 2.46573 3.82341 2.37059 3.98938C1.8534 4.89128 1.33707 5.79369 0.821609 6.69663C0.667958 6.9646 0.495449 7.13 0.337707 7.13006C0.223267 7.13006 0.116659 7.04318 0.0306043 6.84544ZM11.994 3.97647C10.8552 3.06459 9.71775 2.15096 8.5817 1.23558C8.48631 1.15877 8.33186 1.0876 8.43388 0.928056C8.53465 0.770639 8.66172 0.890426 8.76772 0.946043C9.99331 1.58877 11.2181 2.23323 12.442 2.87942C12.7927 3.06431 13.1443 3.24801 13.4918 3.43984C13.7326 3.57305 13.75 3.72156 13.5287 3.87685C13.2871 4.04619 13.0897 4.3109 12.7568 4.30608C12.46 4.30048 12.2181 4.15597 11.994 3.97647ZM1.84199 2.76357C1.71049 2.60491 1.71728 2.43127 1.82812 2.27251C2.12994 1.84006 2.43355 1.40865 2.75228 0.989997C2.89331 0.804693 3.14015 0.793031 3.27609 0.958897C3.48985 1.22003 3.58678 1.54461 3.67339 1.83954C3.6761 1.9203 3.65577 2.00009 3.61493 2.06886C3.5741 2.13763 3.51459 2.19231 3.44391 2.22601C3.05978 2.43215 2.67405 2.63606 2.28564 2.83355C2.22386 2.86722 2.15552 2.88583 2.08579 2.88797C2.03873 2.88761 1.99235 2.8762 1.95012 2.85462C1.90789 2.83304 1.8709 2.80182 1.84189 2.76332L1.84199 2.76357Z" fill="#E8EFFD"/>
<mask id="mask0_1175_23450" style="mask-type:luminance" maskUnits="userSpaceOnUse" x="17" y="3" width="52" height="9">
<path d="M69.0002 3.28906H17.8931V11.7577H69.0002V3.28906Z" fill="white"/>
</mask>
<g mask="url(#mask0_1175_23450)">
<path d="M17.8931 3.71973H21.2212C21.9994 3.71973 22.6195 3.91623 23.0815 4.30923C23.5432 4.70236 23.7741 5.20117 23.7743 5.80565C23.7743 6.70534 23.2687 7.31376 22.2574 7.63091C22.774 7.70669 23.185 7.92969 23.4904 8.29992C23.7926 8.66092 23.9559 9.12524 23.9487 9.60368C23.9487 10.2385 23.725 10.743 23.2775 11.1172C22.83 11.4914 22.2063 11.6784 21.4065 11.6782H17.8931V3.71973ZM19.7588 5.19386V6.91675H20.9811C21.2502 6.91675 21.4667 6.84494 21.6304 6.70133C21.7941 6.55772 21.8759 6.34422 21.8759 6.06083C21.8759 5.77747 21.7941 5.56205 21.6304 5.41457C21.4667 5.26709 21.2502 5.19352 20.9811 5.19386H19.7588ZM19.7588 10.2047H21.1664C21.399 10.2129 21.6257 10.1275 21.7992 9.9663C21.9664 9.80759 22.05 9.58842 22.0501 9.3088C22.0502 9.02918 21.9702 8.80629 21.81 8.64015C21.7282 8.55676 21.6308 8.49162 21.5238 8.44873C21.4169 8.40584 21.3026 8.38611 21.188 8.39073H19.7588V10.2047Z" fill="#E8EFFD"/>
<path d="M27.1135 3.28906H25.2476V11.6783H27.1135V3.28906Z" fill="#E8EFFD"/>
<path d="M29.2351 10.862C28.6203 10.2651 28.3129 9.47902 28.313 8.5039C28.3131 7.52878 28.6186 6.74842 29.2296 6.1628C29.8405 5.57716 30.597 5.28428 31.4991 5.28418C32.4012 5.28408 33.1559 5.57695 33.7631 6.1628C34.3703 6.74862 34.674 7.52899 34.6742 8.5039C34.6744 9.47882 34.3725 10.2649 33.7685 10.862C33.1646 11.4591 32.4118 11.7576 31.5099 11.7576C30.6081 11.7576 29.8498 11.4591 29.2351 10.862ZM32.4047 9.69425C32.6519 9.42213 32.7756 9.02911 32.7758 8.5152C32.776 8.00129 32.6486 7.6102 32.3938 7.34191C32.2777 7.21357 32.1373 7.11156 31.9814 7.04229C31.8256 6.97302 31.6576 6.93798 31.4881 6.93937C31.3193 6.93764 31.1521 6.97256 30.9971 7.04187C30.8421 7.11119 30.7028 7.21339 30.588 7.34191C30.337 7.61033 30.2114 8.00143 30.2114 8.5152C30.2114 9.02897 30.3406 9.42199 30.5989 9.69425C30.7154 9.82387 30.8565 9.92703 31.0133 9.99726C31.1701 10.0675 31.3392 10.1033 31.5099 10.1023C31.6784 10.1042 31.8453 10.0688 31.9996 9.99847C32.1539 9.92811 32.292 9.8244 32.4047 9.69425Z" fill="#E8EFFD"/>
<path d="M36.2729 10.8733C35.7091 10.2837 35.4272 9.4977 35.4272 8.51515C35.4273 7.5326 35.7092 6.74849 36.2729 6.1628C36.8365 5.57716 37.5657 5.28428 38.4605 5.28418C39.2024 5.28418 39.8317 5.47501 40.3482 5.85668C40.8648 6.23834 41.2066 6.78432 41.3738 7.49461H39.3552C39.1807 7.11681 38.8952 6.92788 38.4987 6.92781C38.1021 6.92774 37.8075 7.0732 37.615 7.3642C37.4221 7.65532 37.3256 8.03889 37.3256 8.51489C37.3256 8.99089 37.4221 9.37446 37.615 9.66559C37.8076 9.95655 38.0894 10.102 38.4605 10.102C38.6933 10.102 38.8752 10.0604 39.0061 9.97726C39.1371 9.89412 39.2535 9.74676 39.3553 9.53518H41.374C41.2065 10.2154 40.8609 10.7558 40.3374 11.1563C39.8138 11.5568 39.1882 11.7571 38.4606 11.7571C37.566 11.7571 36.8368 11.4624 36.273 10.8729" fill="#E8EFFD"/>
<path d="M44.2872 11.6783H42.4214V3.28906H44.2872V7.99381L46.1748 5.35249H48.6843L46.0766 8.58331L48.6844 11.6783H46.2075L44.2872 9.15026V11.6783Z" fill="#E8EFFD"/>
<path d="M52.1428 5.13677C51.91 5.13677 51.719 5.20106 51.5699 5.32964C51.4208 5.45822 51.3463 5.64334 51.3464 5.88498C51.3464 6.12687 51.4154 6.32152 51.5535 6.46893C51.7053 6.62496 51.8904 6.74151 52.0937 6.80906C52.3155 6.88833 52.5628 6.96389 52.8357 7.03573C53.1107 7.10827 53.3819 7.19527 53.6484 7.2964C53.9073 7.39312 54.1546 7.52059 54.3853 7.67629C54.6156 7.83758 54.8017 8.05829 54.9253 8.31679C55.0634 8.59278 55.1326 8.92348 55.1326 9.30888C55.1326 9.98153 54.8689 10.5578 54.3416 11.0376C53.8142 11.5174 53.1196 11.7574 52.2576 11.7575C51.3956 11.7575 50.7009 11.5421 50.1736 11.1113C49.6462 10.6804 49.3825 10.0683 49.3825 9.27472H51.3683C51.4191 9.90968 51.7319 10.2271 52.3067 10.2271C52.5758 10.2271 52.7867 10.1533 52.9396 10.0059C53.0143 9.93499 53.0734 9.84816 53.113 9.75134C53.1525 9.65451 53.1716 9.54998 53.1687 9.44484C53.1724 9.34245 53.1559 9.24036 53.1202 9.14483C53.0846 9.0493 53.0305 8.96234 52.9614 8.88929C52.8077 8.7359 52.6232 8.61974 52.4212 8.54916C52.1993 8.46602 51.952 8.38854 51.6793 8.31674C51.4037 8.24412 51.1323 8.15516 50.8665 8.05031C50.6089 7.95068 50.362 7.82347 50.1297 7.67074C49.8985 7.51277 49.7121 7.29356 49.5897 7.03573C49.4513 6.75991 49.3822 6.43303 49.3823 6.0551C49.3823 5.31447 49.6479 4.72114 50.1789 4.27509C50.71 3.82905 51.3883 3.60617 52.2137 3.60645C53.0393 3.60645 53.7067 3.80104 54.2159 4.19024C54.725 4.57944 54.9906 5.19353 55.0124 6.0325H52.9829C52.9537 5.74541 52.8647 5.52426 52.7157 5.36903C52.6404 5.29179 52.5508 5.23133 52.4523 5.19136C52.3538 5.15139 52.2485 5.13276 52.1428 5.13661" fill="#E8EFFD"/>
<path d="M59.1915 11.7574C58.3041 11.7574 57.5766 11.4608 57.0092 10.8675C56.4418 10.2742 56.1581 9.48635 56.1582 8.5039C56.1582 7.52142 56.4401 6.73916 57.0038 6.1571C57.5676 5.57505 58.2968 5.28408 59.1914 5.28418C60.0861 5.28418 60.828 5.57139 61.4174 6.1458C62.0067 6.72022 62.3013 7.51757 62.3011 8.53785C62.3021 8.74274 62.2875 8.9474 62.2575 9.1499H58.0677C58.1022 9.40821 58.2235 9.64551 58.4102 9.81981C58.5969 9.9941 58.8369 10.0941 59.0878 10.1022C59.3241 10.1022 59.5005 10.0777 59.617 10.0285C59.7093 9.99368 59.7958 9.94399 59.8734 9.88127C59.9508 9.80641 60.022 9.72492 60.0862 9.63765H62.1048C61.9383 10.2607 61.5678 10.804 61.0572 11.1738C60.5334 11.5632 59.9115 11.7578 59.1914 11.7576M59.988 7.2173C59.7697 7.03209 59.4951 6.93361 59.2133 6.93947C58.9378 6.93103 58.6692 7.03015 58.4605 7.2173C58.2562 7.40351 58.121 7.65815 58.0785 7.93706H60.3589C60.3475 7.79716 60.3088 7.66116 60.245 7.53739C60.1812 7.41363 60.0938 7.3047 59.988 7.2173Z" fill="#E8EFFD"/>
<path d="M63.8993 10.8733C63.3355 10.2837 63.0536 9.4977 63.0537 8.51515C63.0538 7.5326 63.3357 6.74849 63.8993 6.1628C64.463 5.57716 65.1922 5.28428 66.0869 5.28418C66.8289 5.28418 67.4582 5.47501 67.9747 5.85668C68.4912 6.23834 68.8331 6.78432 69.0003 7.49461H66.9816C66.8072 7.11681 66.5217 6.92788 66.1251 6.92781C65.7286 6.92774 65.434 7.0732 65.2414 7.3642C65.0486 7.65532 64.9521 8.03889 64.9521 8.51489C64.9521 8.99089 65.0486 9.37446 65.2414 9.66559C65.434 9.95655 65.7159 10.102 66.0869 10.102C66.3197 10.102 66.5016 10.0604 66.6326 9.97726C66.7636 9.89412 66.88 9.74676 66.9818 9.53518H69.0004C68.8329 10.2154 68.4874 10.7558 67.9638 11.1563C67.4402 11.5568 66.8147 11.7571 66.0871 11.7571C65.1924 11.7571 64.4632 11.4624 63.8995 10.8729" fill="#E8EFFD"/>
</g>
</svg>
