<svg width="70" height="15" viewBox="0 0 70 15" fill="none" xmlns="http://www.w3.org/2000/svg">
<path fill-rule="evenodd" clip-rule="evenodd" d="M3.21484 0.727438C5.20786 -0.230031 7.1818 -0.247174 9.1917 0.704801C9.94273 1.06058 10.7696 1.25704 11.5472 1.56272C11.8268 1.6726 12.0627 1.88994 12.4708 2.15826C11.9583 2.52942 11.5915 2.79511 11.1549 3.11133C10.9681 2.86411 10.8078 2.65248 10.533 2.28923C9.79997 3.00123 9.01102 3.63896 8.39134 4.40964C7.89423 5.02803 7.4741 5.09593 6.83709 4.70894C5.77162 4.06199 4.81447 3.95475 4.04458 5.21042C3.84701 5.5328 3.33763 5.66883 2.7675 6.01407C3.33171 5.95429 3.66808 5.94242 3.99415 5.87914C4.66602 5.7486 5.03177 6.03472 5.19974 6.65948C5.52449 7.86813 6.21895 8.67639 7.5219 8.98273C7.88196 9.06733 8.14114 9.57189 8.58211 10.0219C10.1105 9.58046 10.2396 9.34422 9.62126 7.56663C10.0559 7.415 10.5019 7.28491 10.9258 7.10427C11.3529 6.92231 11.7584 6.69003 12.243 6.44478C12.2704 7.87296 12.0735 9.13084 11.0466 10.1076C9.49957 11.5791 7.93327 13.0308 6.15624 14.6961C4.32242 12.8671 2.49758 11.2183 0.911321 9.36927C0.559951 8.95981 0.450604 8.33827 0.370394 7.70313L0.339366 7.44882C0.308876 7.19472 0.278506 6.94269 0.234631 6.70541C0.105915 6.00967 0.0745546 5.29635 0 4.59094V2.20726C1.07205 1.71501 2.15178 1.23815 3.21484 0.727438ZM35.3422 3.56787V7.28853C36.4807 6.03923 37.4953 5.17296 39.2882 5.82519C38.488 6.34754 37.7714 6.8154 37.0465 7.28853C37.9021 8.52575 38.4841 9.36675 39.0658 10.208C39.0103 10.3269 38.9549 10.4455 38.8994 10.5644C38.7344 10.5167 38.5625 10.4783 38.3893 10.4416L38.1294 10.387C37.6968 10.2948 37.274 10.1895 36.9498 9.95261C36.3685 9.52804 36.0156 8.79824 35.4036 7.99021C35.3479 8.92636 35.3072 9.61331 35.2631 10.3534H33.6203V3.56787H35.3422ZM61.095 5.74067V8.72801C60.2203 8.72801 59.3283 8.68977 58.4437 8.75174C58.1834 8.76998 57.9435 9.07214 57.6944 9.24421C57.9361 9.38859 58.1714 9.6435 58.4209 9.65757C59.3189 9.70811 60.2216 9.67735 61.1224 9.67735C61.1647 9.77492 61.2073 9.87227 61.2498 9.96984C61.0249 10.1632 60.8053 10.5168 60.574 10.5245C59.0562 10.5748 57.5355 10.5504 55.961 10.5504V5.74067H61.095ZM70 3.72425V10.5195H64.729V5.77719H68.1683V3.72425H70ZM63.9299 3.73018V10.492H62.1759V3.73018H63.9299ZM46.4166 3.61516L46.5907 3.92172C46.2824 4.10675 45.9822 4.43396 45.664 4.45154C44.506 4.51615 43.3418 4.47704 42.058 4.47704V6.51372H46.3227V10.4438C44.3402 10.4438 42.4204 10.4546 40.5013 10.4225C40.3526 10.4199 40.209 10.1151 40.063 9.95067C40.2408 9.81596 40.4132 9.57402 40.5969 9.56523C41.4335 9.52479 42.2731 9.55051 43.1116 9.55182C43.2105 9.55199 43.3095 9.55209 43.4099 9.55214L44.041 9.5521C44.1529 9.55207 44.2691 9.55204 44.3911 9.55204V7.43449H40.1698V3.61516H46.4166ZM55.1127 5.74181V10.4391H53.414V5.74181H55.1127ZM49.1189 3.67412C49.1551 4.29603 49.1915 4.92079 49.2369 5.70136H52.5655V10.4327H50.8738V6.62784H49.1448V10.4173H47.4208V3.67412H49.1189ZM32.5754 5.6113C32.6225 5.73238 32.6694 5.85325 32.7164 5.97433C31.8811 7.07596 30.4802 6.07256 29.4127 6.6169V9.46996H32.5344C32.587 9.59303 32.6396 9.71609 32.6922 9.83915C32.3833 10.0262 32.0813 10.3608 31.7647 10.3749C30.4207 10.4353 29.0724 10.4006 27.6168 10.4006V5.6113H32.5754ZM26.547 5.57651V8.52495C25.6471 8.52495 24.7875 8.48738 23.935 8.54627C23.6565 8.56561 23.396 8.83613 23.1271 8.9915C23.3887 9.15521 23.6416 9.44067 23.9135 9.45979C24.7798 9.52044 25.653 9.4822 26.5238 9.4822L26.6919 9.78063C26.4426 9.97204 26.1986 10.3199 25.9424 10.3289C24.4516 10.3814 22.9579 10.3546 21.3812 10.3546V5.57651H26.547ZM20.5723 3.51856V7.6328H16.6272V10.2512H14.8116V3.51856H20.5723ZM68.1449 6.67357H66.5584V9.63322H68.1449V6.67357ZM59.3193 6.68386H57.701C57.7249 7.08842 57.7434 7.39695 57.7644 7.75296H59.3686C59.3498 7.34267 59.3344 7.01129 59.3193 6.68386ZM24.7851 6.47574H23.2431V7.56419H24.7314C24.7491 7.20555 24.764 6.90119 24.7851 6.47574ZM2.17283 6.13889C2.06187 6.13383 1.95596 6.12614 1.84567 6.14328C1.61893 6.17888 1.36391 6.27359 1.25361 6.49818C1.18673 6.63465 1.17402 6.8621 1.29484 6.97307C1.39702 7.06691 1.57639 7.06603 1.70226 7.03944C2.02482 6.97175 2.2055 6.62652 2.33071 6.34216C2.35812 6.27975 2.38312 6.21558 2.4057 6.14965C2.40219 6.1602 2.18993 6.13977 2.17283 6.13889ZM18.6288 4.41405H16.7167V6.67928H18.6288V4.41405ZM55.1638 3.70425V5.0687H53.4839V3.70425H55.1638Z" fill="#E8EFFD"/>
</svg>
