<svg width="72" height="16" viewBox="0 0 72 16" fill="none" xmlns="http://www.w3.org/2000/svg">
<mask id="mask0_4_4" style="mask-type:luminance" maskUnits="userSpaceOnUse" x="1" y="0" width="70" height="16">
<path d="M71 0.5H1V15.5H71V0.5Z" fill="white"/>
</mask>
<g mask="url(#mask0_4_4)">
<path fill-rule="evenodd" clip-rule="evenodd" d="M4.21484 1.22744C6.20786 0.269969 8.1818 0.252826 10.1917 1.2048C10.9427 1.56058 11.7696 1.75704 12.5472 2.06272C12.8268 2.1726 13.0627 2.38994 13.4708 2.65826C12.9583 3.02942 12.5915 3.29511 12.1549 3.61133C11.9681 3.36411 11.8078 3.15248 11.533 2.78923C10.8 3.50123 10.011 4.13896 9.39134 4.90964C8.89423 5.52803 8.4741 5.59593 7.83709 5.20894C6.77162 4.56199 5.81447 4.45475 5.04458 5.71042C4.84701 6.0328 4.33763 6.16883 3.7675 6.51407C4.33171 6.45429 4.66808 6.44242 4.99415 6.37914C5.66602 6.2486 6.03177 6.53472 6.19974 7.15948C6.52449 8.36813 7.21895 9.17639 8.5219 9.48273C8.88196 9.56733 9.14114 10.0719 9.58211 10.5219C11.1105 10.0805 11.2396 9.84422 10.6213 8.06663C11.0559 7.915 11.5019 7.78491 11.9258 7.60427C12.3529 7.42231 12.7584 7.19003 13.243 6.94478C13.2704 8.37296 13.0735 9.63084 12.0466 10.6076C10.4996 12.0791 8.93327 13.5308 7.15624 15.1961C5.32242 13.3671 3.49758 11.7183 1.91132 9.86927C1.55995 9.45981 1.4506 8.83827 1.37039 8.20313L1.33937 7.94882C1.30888 7.69472 1.27851 7.44269 1.23463 7.20541C1.10591 6.50967 1.07456 5.79635 1 5.09094V2.70726C2.07205 2.21501 3.15178 1.73815 4.21484 1.22744ZM36.3422 4.06787V7.78853C37.4807 6.53923 38.4953 5.67296 40.2882 6.32519C39.488 6.84754 38.7714 7.3154 38.0465 7.78853C38.9021 9.02575 39.4841 9.86675 40.0658 10.708C40.0103 10.8269 39.9549 10.9455 39.8994 11.0644C39.7344 11.0167 39.5625 10.9783 39.3893 10.9416L39.1294 10.887C38.6968 10.7948 38.274 10.6895 37.9498 10.4526C37.3685 10.028 37.0156 9.29824 36.4036 8.49021C36.3479 9.42636 36.3072 10.1133 36.2631 10.8534H34.6203V4.06787H36.3422ZM62.095 6.24067V9.22801C61.2203 9.22801 60.3283 9.18977 59.4437 9.25174C59.1834 9.26998 58.9435 9.57214 58.6944 9.74421C58.9361 9.88859 59.1714 10.1435 59.4209 10.1576C60.3189 10.2081 61.2216 10.1774 62.1224 10.1774C62.1647 10.2749 62.2073 10.3723 62.2498 10.4698C62.0249 10.6632 61.8053 11.0168 61.574 11.0245C60.0562 11.0748 58.5355 11.0504 56.961 11.0504V6.24067H62.095ZM71 4.22425V11.0195H65.729V6.27719H69.1683V4.22425H71ZM64.9299 4.23018V10.992H63.1759V4.23018H64.9299ZM47.4166 4.11516L47.5907 4.42172C47.2824 4.60675 46.9822 4.93396 46.664 4.95154C45.506 5.01615 44.3418 4.97704 43.058 4.97704V7.01372H47.3227V10.9438C45.3402 10.9438 43.4204 10.9546 41.5013 10.9225C41.3526 10.9199 41.209 10.6151 41.063 10.4507C41.2408 10.316 41.4132 10.074 41.5969 10.0652C42.4335 10.0248 43.2731 10.0505 44.1116 10.0518C44.2105 10.052 44.3095 10.0521 44.4099 10.0521H45.041C45.1529 10.0521 45.2691 10.052 45.3911 10.052V7.93449H41.1698V4.11516H47.4166ZM56.1127 6.24181V10.9391H54.414V6.24181H56.1127ZM50.1189 4.17412C50.1551 4.79603 50.1915 5.42079 50.2369 6.20136H53.5655V10.9327H51.8738V7.12784H50.1448V10.9173H48.4208V4.17412H50.1189ZM33.5754 6.1113C33.6225 6.23238 33.6694 6.35325 33.7164 6.47433C32.8811 7.57596 31.4802 6.57256 30.4127 7.1169V9.96996H33.5344C33.587 10.093 33.6396 10.2161 33.6922 10.3392C33.3833 10.5262 33.0813 10.8608 32.7647 10.8749C31.4207 10.9353 30.0724 10.9006 28.6168 10.9006V6.1113H33.5754ZM27.547 6.07651V9.02495C26.6471 9.02495 25.7875 8.98738 24.935 9.04627C24.6565 9.06561 24.396 9.33613 24.1271 9.4915C24.3887 9.65521 24.6416 9.94067 24.9135 9.95979C25.7798 10.0204 26.653 9.9822 27.5238 9.9822L27.6919 10.2806C27.4426 10.472 27.1986 10.8199 26.9424 10.8289C25.4516 10.8814 23.9579 10.8546 22.3812 10.8546V6.07651H27.547ZM21.5723 4.01856V8.1328H17.6272V10.7512H15.8116V4.01856H21.5723ZM69.1449 7.17357H67.5584V10.1332H69.1449V7.17357ZM60.3193 7.18386H58.701C58.7249 7.58842 58.7434 7.89695 58.7644 8.25296H60.3686C60.3498 7.84267 60.3344 7.51129 60.3193 7.18386ZM25.7851 6.97574H24.2431V8.06419H25.7314C25.7491 7.70555 25.764 7.40119 25.7851 6.97574ZM3.17283 6.63889C3.06187 6.63383 2.95596 6.62614 2.84567 6.64328C2.61893 6.67888 2.36391 6.77359 2.25361 6.99818C2.18673 7.13465 2.17402 7.3621 2.29484 7.47307C2.39702 7.56691 2.57639 7.56603 2.70226 7.53944C3.02482 7.47175 3.2055 7.12652 3.33071 6.84216C3.35812 6.77975 3.38312 6.71558 3.4057 6.64965C3.40219 6.6602 3.18993 6.63977 3.17283 6.63889ZM19.6288 4.91405H17.7167V7.17928H19.6288V4.91405ZM56.1638 4.20425V5.5687H54.4839V4.20425H56.1638Z" fill="white" fill-opacity="0.5"/>
</g>
</svg>
