<svg fill="none" height="15" viewBox="0 0 70 15" width="70" xmlns="http://www.w3.org/2000/svg"><path clip-rule="evenodd" d="m3.21484.727438c1.99302-.957469 3.96696-.974612 5.97686-.022637.75103.355779 1.5779.552239 2.3555.857919.2796.10988.5155.32722.9236.59554-.5125.37116-.8793.63685-1.3159.95307-.1868-.24722-.3471-.45885-.6219-.8221-.73303.712-1.52198 1.34973-2.14166 2.12041-.49711.61839-.91724.68629-1.55425.2993-1.06547-.64695-2.02262-.75419-2.79251.50148-.19757.32238-.70695.45841-1.27708.80365.56421-.05978.90058-.07165 1.22665-.13493.67187-.13054 1.03762.15558 1.20559.78034.32475 1.20865 1.01921 2.01691 2.32216 2.32325.36006.0846.61924.58916 1.06021 1.03917 1.52839-.44144 1.65749-.67768 1.03915-2.45527.43464-.15163.88064-.28172 1.30454-.46236.4271-.18196.8326-.41424 1.3172-.65949.0274 1.42818-.1695 2.68606-1.1964 3.66282-1.54703 1.4715-3.11333 2.9232-4.89036 4.5885-1.83382-1.829-3.65866-3.4778-5.244919-5.32683-.35137-.40946-.460717-1.031-.540927-1.66614l-.031028-.25431c-.03049-.2541-.06086-.50613-.104735-.74341-.128716-.69574-.1600764-1.40906-.234631-2.11447v-2.38368c1.07205-.49225 2.15178-.96911 3.21484-1.479822zm32.12736 2.840432v3.72066c1.1385-1.2493 2.1531-2.11557 3.946-1.46334-.8002.52235-1.5168.99021-2.2417 1.46334.8556 1.23722 1.4376 2.07822 2.0193 2.91947-.0555.1189-.1109.2375-.1664.3564-.165-.0477-.3369-.0861-.5101-.1228l-.2599-.0546c-.4326-.0922-.8554-.1975-1.1796-.43439-.5813-.42457-.9342-1.15437-1.5462-1.9624-.0557.93615-.0964 1.6231-.1405 2.36319h-1.6428v-6.78553zm25.7528 2.1728v2.98734c-.8747 0-1.7667-.03824-2.6513.02373-.2603.01824-.5002.3204-.7493.49247.2417.14438.477.39929.7265.41336.898.05054 1.8007.01978 2.7015.01978.0423.09757.0849.19492.1274.29249-.2249.19336-.4445.54696-.6758.55466-1.5178.0503-3.0385.0259-4.613.0259v-4.80973zm8.905-2.01642v6.79525h-5.271v-4.74231h3.4393v-2.05294zm-6.0701.00593v6.76182h-1.754v-6.76182zm-17.5133-.11502.1741.30656c-.3083.18503-.6085.51224-.9267.52982-1.158.06461-2.3222.0255-3.606.0255v2.03668h4.2647v3.93008c-1.9825 0-3.9023.0108-5.8214-.0213-.1487-.0026-.2923-.3074-.4383-.47183.1778-.13471.3502-.37665.5339-.38544.8366-.04044 1.6762-.01472 2.5147-.01341.0989.00017.1979.00027.2983.00032l.6311-.00004c.1119-.00003.2281-.00006.3501-.00006v-2.11755h-4.2213v-3.81933zm8.6961 2.12665v4.69729h-1.6987v-4.69729zm-5.9938-2.06769c.0362.62191.0726 1.24667.118 2.02724h3.3286v4.73134h-1.6917v-3.80486h-1.729v3.78946h-1.724v-6.74318zm-16.5435 1.93718c.0471.12108.094.24195.141.36303-.8353 1.10163-2.2362.09823-3.3037.64257v2.85306h3.1217c.0526.12307.1052.24613.1578.36919-.3089.18705-.6109.52165-.9275.53575-1.344.0604-2.6923.0257-4.1479.0257v-4.7893zm-6.0284-.03479v2.94844c-.8999 0-1.7595-.03757-2.612.02132-.2785.01934-.539.28986-.8079.44523.2616.16371.5145.44917.7864.46829.8663.06065 1.7395.02241 2.6103.02241l.1681.29843c-.2493.19141-.4933.53927-.7495.54827-1.4908.0525-2.9845.0257-4.5612.0257v-4.77809zm-5.9747-2.05795v4.11424h-3.9451v2.6184h-1.8156v-6.73264zm47.5726 3.15501h-1.5865v2.95965h1.5865zm-8.8256.01029h-1.6183c.0239.40456.0424.71309.0634 1.0691h1.6042c-.0188-.41029-.0342-.74167-.0493-1.0691zm-34.5342-.20812h-1.542v1.08845h1.4883c.0177-.35864.0326-.663.0537-1.08845zm-22.61227-.33685c-.11096-.00506-.21687-.01275-.32716.00439-.22674.0356-.48176.13031-.59206.3549-.06688.13647-.07959.36392.04123.47489.10218.09384.28155.09296.40742.06637.32256-.06769.50324-.41292.62845-.69728.02741-.06241.05241-.12658.07499-.19251-.00351.01055-.21577-.00988-.23287-.01076zm16.45597-1.72484h-1.9121v2.26523h1.9121zm36.535-.7098v1.36445h-1.6799v-1.36445z" fill="#222c3c" fill-rule="evenodd"/></svg>