<svg width="18" height="18" viewBox="0 0 18 18" fill="none" xmlns="http://www.w3.org/2000/svg">
<path d="M5 15H6.5V13H8.5V11.5H6.5V9.5H5V11.5H3V13H5V15ZM10 14.25H15V12.75H10V14.25ZM10 11.75H15V10.25H10V11.75ZM11.1 7.95L12.5 6.55L13.9 7.95L14.95 6.9L13.55 5.45L14.95 4.05L13.9 3L12.5 4.4L11.1 3L10.05 4.05L11.45 5.45L10.05 6.9L11.1 7.95ZM3.25 6.2H8.25V4.7H3.25V6.2ZM2 18C1.45 18 0.979002 17.804 0.587002 17.412C0.195002 17.02 -0.000664969 16.5493 1.69779e-06 16V2C1.69779e-06 1.45 0.196002 0.979002 0.588002 0.587002C0.980002 0.195002 1.45067 -0.000664969 2 1.69779e-06H16C16.55 1.69779e-06 17.021 0.196002 17.413 0.588002C17.805 0.980002 18.0007 1.45067 18 2V16C18 16.55 17.804 17.021 17.412 17.413C17.02 17.805 16.5493 18.0007 16 18H2Z" fill="#6C86AD"/>
</svg>
