<svg width="42" height="46" viewBox="0 0 42 46" fill="none" xmlns="http://www.w3.org/2000/svg">
<g clip-path="url(#clip0_4_37)">
<mask id="mask0_4_37" style="mask-type:luminance" maskUnits="userSpaceOnUse" x="0" y="0" width="42" height="46">
<path d="M42 0H0V46H42V0Z" fill="white"/>
</mask>
<g mask="url(#mask0_4_37)">
<path fill-rule="evenodd" clip-rule="evenodd" d="M19.362 0.294884C20.2825 -0.0476405 21.2886 -0.0930059 22.2367 0.165261L22.638 0.294884L38.9713 6.37099C39.7992 6.67888 40.5218 7.21372 41.0551 7.91324C41.5884 8.61275 41.9104 9.44816 41.9837 10.3222L42 10.7064V23.1202C41.9995 26.8706 40.9784 30.5513 39.0445 33.7739C37.1106 36.9965 34.3356 39.6414 31.0123 41.4295L30.3917 41.7536L22.5657 45.633C22.1349 45.8468 21.6643 45.9701 21.1833 45.9952C20.7023 46.0203 20.2213 45.9466 19.7703 45.7788L19.4343 45.633L11.6083 41.7512C8.22642 40.0737 5.36381 37.5216 3.32268 34.3641C1.28154 31.2067 0.137621 27.5611 0.0116669 23.8123L0 23.1179V10.7087C1.35684e-05 9.83177 0.251129 8.97284 0.724112 8.23194C1.1971 7.49104 1.87249 6.89866 2.67167 6.52376L3.02867 6.3733L19.362 0.297199V0.294884Z" fill="url(#paint0_linear_4_37)"/>
<path fill-rule="evenodd" clip-rule="evenodd" d="M18.982 15.0663L14.3363 22.7464C14.1216 23.1012 14.0056 23.5062 14.0002 23.92C13.9948 24.3337 14.1003 24.7415 14.3057 25.1017C14.5112 25.4618 14.8094 25.7614 15.1698 25.9698C15.5302 26.1782 15.9399 26.288 16.357 26.2879H21.5277L18.982 30.4984C18.6847 31.0235 18.6055 31.6429 18.7611 32.2251C18.9167 32.8072 19.295 33.3063 19.8155 33.6163C20.336 33.9263 20.9578 34.0228 21.549 33.8854C22.1401 33.748 22.6539 33.3874 22.9813 32.8802L27.627 25.2C27.8418 24.8453 27.9578 24.4403 27.9632 24.0265C27.9685 23.6127 27.8631 23.2049 27.6576 22.8448C27.4521 22.4847 27.154 22.1851 26.7936 21.9767C26.4332 21.7683 26.0235 21.6585 25.6063 21.6585H20.4357L22.9813 17.4481C23.2786 16.9229 23.3579 16.3035 23.2022 15.7214C23.0466 15.1392 22.6684 14.6402 22.1479 14.3302C21.6273 14.0202 21.0055 13.9236 20.4144 14.0611C19.8233 14.1985 19.3095 14.5591 18.982 15.0663Z" fill="black" fill-opacity="0.8"/>
</g>
</g>
<defs>
<linearGradient id="paint0_linear_4_37" x1="21" y1="-1.8084e-09" x2="21" y2="46" gradientUnits="userSpaceOnUse">
<stop stop-color="#B9A9FF"/>
<stop offset="1" stop-color="#BE5BFF"/>
</linearGradient>
<clipPath id="clip0_4_37">
<rect width="42" height="46" fill="white"/>
</clipPath>
</defs>
</svg>
