<svg width="40" height="42" viewBox="0 0 40 42" fill="none" xmlns="http://www.w3.org/2000/svg">
<g clip-path="url(#clip0_537_25512)">
<path d="M22.1081 6.49194C20.9825 1.94281 15.8061 -1.2083 11.2818 0.4466C9.15077 1.22611 7.31881 2.81067 6.33668 4.87114C5.82416 5.94639 5.53538 7.07893 5.49534 8.27168C5.47053 9.0112 5.72397 10.203 5.23197 10.6411C3.75033 11.9606 5.3567 14.0587 7.03014 13.7292C8.07616 13.5232 9.12217 13.3172 10.1682 13.1112L7.82871 11.3297C7.92853 16.3429 8.99656 21.4033 12.3277 25.3033C15.3677 28.8625 20.4319 30.7502 24.9721 29.1722L22.6326 27.3906C23.1685 31.8248 25.0113 36.1906 28.2749 39.3233C29.8431 40.8285 31.8571 41.9965 34.0852 42C36.1723 42.0032 38.1653 41.0107 39.2549 39.2097C39.6539 38.5501 39.5713 37.4979 38.9659 36.9708C34.0579 32.6975 34.0389 25.5447 32.3177 19.7402C30.5276 13.7035 26.6193 8.53171 21.2688 5.20075C19.2438 3.94009 17.386 7.13561 19.4032 8.39142C24.5174 11.5753 27.7551 16.5634 29.1935 22.3488C30.6966 28.3939 31.3419 35.2213 36.3522 39.5836L36.0632 37.3447C35.5874 38.1311 34.5819 38.4042 33.7212 38.2962C32.2271 38.1086 31.004 36.9199 30.0647 35.8411C28.0357 33.511 26.6994 30.4562 26.329 27.3907C26.1962 26.2923 25.2435 25.1733 23.9895 25.6091C20.5204 26.8147 16.9676 25.2466 14.7589 22.4721C12.2659 19.3402 11.6025 15.2207 11.525 11.3297C11.4998 10.062 10.3693 9.31498 9.18556 9.54807C8.13955 9.75404 7.09354 9.96001 6.04752 10.166L7.84569 13.254C9.5021 11.779 8.96953 9.81255 9.21447 7.88741C9.39642 6.45738 10.3411 5.13089 11.5598 4.382C14.29 2.70439 17.7999 4.4676 18.5438 7.47425C19.1146 9.78147 22.6802 8.80419 22.1081 6.49194Z" fill="#6C86AD"/>
<path d="M14.2655 26.3581C14.1291 27.7759 13.9927 29.1938 13.8563 30.6116C13.8136 31.0561 14.0933 31.6138 14.3976 31.9181C14.7182 32.2385 15.2441 32.4798 15.7045 32.4592C16.1825 32.4378 16.6782 32.2809 17.0114 31.9181C17.3606 31.5377 17.5033 31.1248 17.5527 30.6116C17.689 29.1938 17.8254 27.7759 17.9618 26.3581C18.0046 25.9136 17.7248 25.3559 17.4205 25.0516C17.0999 24.7312 16.574 24.4899 16.1136 24.5105C15.6357 24.5319 15.1399 24.6889 14.8068 25.0516C14.4575 25.432 14.3148 25.8449 14.2655 26.3581Z" fill="#6C86AD"/>
<path d="M16.0368 27.1808C15.9005 28.5987 15.7641 30.0165 15.6277 31.4344C15.5849 31.8789 15.8647 32.4366 16.169 32.7408C16.4896 33.0613 17.0155 33.3026 17.4759 33.282C17.9538 33.2606 18.4496 33.1036 18.7827 32.7408C19.132 32.3605 19.2747 31.9476 19.324 31.4344C19.4604 30.0165 19.5968 28.5987 19.7332 27.1808C19.7759 26.7363 19.4962 26.1786 19.1919 25.8744C18.8713 25.554 18.3454 25.3126 17.885 25.3333C17.407 25.3547 16.9113 25.5116 16.5781 25.8744C16.2289 26.2547 16.0862 26.6677 16.0368 27.1808Z" fill="#6C86AD"/>
<path d="M1.7846 33.2674L20.2225 33.6275C22.602 33.6739 22.6019 29.9788 20.2225 29.9323L1.7846 29.5722C-0.594905 29.5257 -0.594831 33.2209 1.7846 33.2674Z" fill="#6C86AD"/>
<path d="M12.315 8.95786C14.6934 8.95786 14.6974 5.2627 12.315 5.2627C9.9366 5.2627 9.93266 8.95786 12.315 8.95786Z" fill="#6C86AD"/>
</g>
<defs>
<clipPath id="clip0_537_25512">
<rect width="39.5" height="42" fill="white"/>
</clipPath>
</defs>
</svg>
