<svg width="34" height="34" viewBox="0 0 34 34" fill="none" xmlns="http://www.w3.org/2000/svg">
<circle cx="17" cy="17" r="17" fill="url(#paint0_linear_709_23516)"/>
<path d="M10.749 8H18.6194C19.0833 8 19.5282 8.18964 19.8562 8.52721C20.1842 8.86477 20.3684 9.32261 20.3684 9.8V11.6729C20.3684 12.1558 19.9769 12.5474 19.4939 12.5474C19.011 12.5474 18.6194 12.1558 18.6194 11.6729V9.8H10.749V24.2H18.6194V22.3271C18.6194 21.8442 19.011 21.4526 19.4939 21.4526C19.9769 21.4526 20.3684 21.8442 20.3684 22.3271V24.2C20.3684 24.6774 20.1842 25.1352 19.8562 25.4728C19.5282 25.8104 19.0833 26 18.6194 26H10.749C10.2851 26 9.84027 25.8104 9.51227 25.4728C9.18427 25.1352 9 24.6774 9 24.2V9.8C9 9.32261 9.18427 8.86477 9.51227 8.52721C9.84027 8.18964 10.2851 8 10.749 8Z" fill="white"/>
<path d="M21.8369 19.419C21.4662 19.7668 21.4668 20.3555 21.8381 20.7025C22.176 21.0184 22.7009 21.0184 23.0388 20.7025L26.9999 17.0005L23.0388 13.2984C22.7009 12.9826 22.176 12.9826 21.8381 13.2984C21.4668 13.6455 21.4662 14.2342 21.8369 14.5819L23.5058 16.1478H15.5367C15.0658 16.1478 14.6841 16.5296 14.6841 17.0005C14.6841 17.4714 15.0658 17.8531 15.5367 17.8531H23.5058L21.8369 19.419Z" fill="white"/>
<defs>
<linearGradient id="paint0_linear_709_23516" x1="-1.5" y1="2" x2="17" y2="34" gradientUnits="userSpaceOnUse">
<stop stop-color="#80CAFF"/>
<stop offset="1" stop-color="#5A5DE0" stop-opacity="0.2"/>
</linearGradient>
</defs>
</svg>
