<svg width="78" height="78" viewBox="0 0 78 78" fill="none" xmlns="http://www.w3.org/2000/svg">
<path fill-rule="evenodd" clip-rule="evenodd" d="M38.9999 1C59.9867 1 77 18.0132 77 38.9999C77 59.9867 59.9867 77 38.9999 77C18.0132 77 1 59.9867 1 38.9999C1 18.0132 18.0132 1 38.9999 1Z" fill="#222C3B" stroke="#00F3AB" stroke-opacity="0.2"/>
<path d="M29.1774 19C28.3382 19 27.5638 19.4604 27.1501 20.2053L17.0551 38.3845C17.0358 38.4193 17.0174 38.4544 17 38.4898H29.2751C29.6821 38.4898 30.0648 38.687 30.3064 39.0212L32.2824 41.7544L36.28 26.8846C36.6452 25.5263 38.5682 25.6365 38.7819 27.0279L41.7754 46.5178L44.7941 34.32C45.0745 33.1873 46.5596 32.9699 47.1408 33.9767L49.7462 38.4898H62C61.9833 38.4559 61.9658 38.4223 61.9474 38.3891L51.9039 20.2098C51.4909 19.4624 50.7152 19 49.8741 19H29.1774Z" fill="url(#paint0_linear_2261_1248)"/>
<path d="M61.8676 40.8666H49.1469C48.6929 40.8666 48.273 40.6217 48.0427 40.2228L46.4284 37.4265L42.7772 52.18C42.4357 53.5598 40.4846 53.4684 40.2686 52.0624L37.2358 32.3162L33.9576 44.5099C33.6745 45.5628 32.3257 45.8187 31.6904 44.94L28.7456 40.8666H17.1328L27.1491 58.7998C27.5636 59.5418 28.3364 60 29.1735 60H49.878C50.717 60 51.4912 59.5399 51.9049 58.7953L61.8676 40.8666Z" fill="url(#paint1_linear_2261_1248)"/>
<circle cx="14" cy="14" r="8" fill="url(#paint2_linear_2261_1248)"/>
<path d="M14.6074 12.2168V18H12.6387V10.6035H14.4912L14.6074 12.2168ZM16.8359 10.5557L16.8018 12.3809C16.7061 12.3672 16.5898 12.3558 16.4531 12.3467C16.321 12.333 16.2002 12.3262 16.0908 12.3262C15.8128 12.3262 15.5713 12.3626 15.3662 12.4355C15.1657 12.5039 14.9971 12.6064 14.8604 12.7432C14.7282 12.8799 14.6279 13.0462 14.5596 13.2422C14.4958 13.4382 14.4593 13.6615 14.4502 13.9121L14.0537 13.7891C14.0537 13.3105 14.1016 12.8708 14.1973 12.4697C14.293 12.0641 14.432 11.7109 14.6143 11.4102C14.8011 11.1094 15.029 10.877 15.2979 10.7129C15.5667 10.5488 15.8743 10.4668 16.2207 10.4668C16.3301 10.4668 16.4417 10.4759 16.5557 10.4941C16.6696 10.5078 16.763 10.5283 16.8359 10.5557Z" fill="black"/>
<defs>
<linearGradient id="paint0_linear_2261_1248" x1="12.5" y1="14" x2="66" y2="60" gradientUnits="userSpaceOnUse">
<stop stop-color="#85E0A3"/>
<stop offset="1" stop-color="#80CAFF"/>
</linearGradient>
<linearGradient id="paint1_linear_2261_1248" x1="12.5" y1="14" x2="66" y2="60" gradientUnits="userSpaceOnUse">
<stop stop-color="#85E0A3"/>
<stop offset="1" stop-color="#80CAFF"/>
</linearGradient>
<linearGradient id="paint2_linear_2261_1248" x1="8.85714" y1="6" x2="19.1429" y2="19.1429" gradientUnits="userSpaceOnUse">
<stop stop-color="#85E0A3"/>
<stop offset="1" stop-color="#80CAFF"/>
</linearGradient>
</defs>
</svg>
