<svg width="34" height="34" viewBox="0 0 34 34" fill="none" xmlns="http://www.w3.org/2000/svg">
<circle cx="17" cy="17" r="17" fill="url(#paint0_linear_2261_1234)"/>
<path d="M12.1416 9C11.7872 9 11.4603 9.1909 11.2856 9.49976L7.02327 17.0375C7.01512 17.0519 7.00737 17.0665 7 17.0812H12.1828C12.3546 17.0812 12.5163 17.1629 12.6183 17.3015L13.4526 18.4347L15.1405 12.2692C15.2946 11.706 16.1066 11.7517 16.1968 12.3287L17.4607 20.4098L18.7353 15.3522C18.8537 14.8825 19.4807 14.7924 19.7261 15.2098L20.8262 17.0812H26C25.993 17.0671 25.9856 17.0532 25.9778 17.0394L21.7372 9.50164C21.5628 9.19173 21.2353 9 20.8802 9H12.1416Z" fill="white"/>
<path d="M25.9441 18.0667H20.5731C20.3815 18.0667 20.2041 17.9651 20.1069 17.7997L19.4253 16.6402L17.8837 22.7576C17.7395 23.3297 16.9157 23.2918 16.8245 22.7088L15.544 14.5214L14.1599 19.5773C14.0404 20.0139 13.4709 20.12 13.2026 19.7556L11.9592 18.0667H7.05608L11.2852 25.5024C11.4602 25.81 11.7865 26 12.1399 26H20.8818C21.2361 26 21.5629 25.8092 21.7376 25.5005L25.9441 18.0667Z" fill="white"/>
<defs>
<linearGradient id="paint0_linear_2261_1234" x1="-1.5" y1="2" x2="17" y2="34" gradientUnits="userSpaceOnUse">
<stop stop-color="#85E0A3"/>
<stop offset="1" stop-color="#80CAFF"/>
</linearGradient>
</defs>
</svg>
