<svg width="78" height="78" viewBox="0 0 78 78" fill="none" xmlns="http://www.w3.org/2000/svg">
<g clip-path="url(#clip0_627_23484)">
<path fill-rule="evenodd" clip-rule="evenodd" d="M38.9999 1C59.9867 1 77 18.0132 77 38.9999C77 59.9867 59.9867 77 38.9999 77C18.0132 77 1 59.9867 1 38.9999C1 18.0132 18.0132 1 38.9999 1Z" fill="#222C3B" stroke="#00F3AB" stroke-opacity="0.2"/>
<path d="M38.8943 50.4425L25 42.105L38.8925 62L52.7981 42.105L38.8887 50.4425H38.8943ZM39.1057 16L25.2075 39.4274L39.1038 47.7726L53 39.4351L39.1057 16Z" fill="url(#paint0_linear_627_23484)"/>
<circle cx="14" cy="14" r="8" fill="url(#paint1_linear_627_23484)"/>
<path d="M14.6074 12.2168V18H12.6387V10.6035H14.4912L14.6074 12.2168ZM16.8359 10.5557L16.8018 12.3809C16.7061 12.3672 16.5898 12.3558 16.4531 12.3467C16.321 12.333 16.2002 12.3262 16.0908 12.3262C15.8128 12.3262 15.5713 12.3626 15.3662 12.4355C15.1657 12.5039 14.9971 12.6064 14.8604 12.7432C14.7282 12.8799 14.6279 13.0462 14.5596 13.2422C14.4958 13.4382 14.4593 13.6615 14.4502 13.9121L14.0537 13.7891C14.0537 13.3105 14.1016 12.8708 14.1973 12.4697C14.293 12.0641 14.432 11.7109 14.6143 11.4102C14.8011 11.1094 15.029 10.877 15.2979 10.7129C15.5667 10.5488 15.8743 10.4668 16.2207 10.4668C16.3301 10.4668 16.4417 10.4759 16.5557 10.4941C16.6696 10.5078 16.763 10.5283 16.8359 10.5557Z" fill="black"/>
</g>
<defs>
<linearGradient id="paint0_linear_627_23484" x1="25" y1="12.5" x2="39" y2="62" gradientUnits="userSpaceOnUse">
<stop stop-color="#85E0A3"/>
<stop offset="1" stop-color="#80CAFF"/>
</linearGradient>
<linearGradient id="paint1_linear_627_23484" x1="8.85714" y1="6" x2="19.1429" y2="19.1429" gradientUnits="userSpaceOnUse">
<stop stop-color="#85E0A3"/>
<stop offset="1" stop-color="#80CAFF"/>
</linearGradient>
<clipPath id="clip0_627_23484">
<rect width="78" height="78" fill="white"/>
</clipPath>
</defs>
</svg>
